<svg xmlns="http://www.w3.org/2000/svg" xmlns:xlink="http://www.w3.org/1999/xlink" width="964.001" height="802.167" viewBox="0 0 964.001 802.167">
  <defs>
    <linearGradient id="linear-gradient" x1="0.612" y1="0.369" x2="0.408" y2="0.555" gradientUnits="objectBoundingBox">
      <stop offset="0" stop-color="#78b46a"/>
      <stop offset="0.03" stop-color="#7f3500"/>
      <stop offset="1" stop-color="#fff"/>
    </linearGradient>
    <linearGradient id="linear-gradient-2" x1="0.822" y1="0.286" x2="0.299" y2="0.624" xlink:href="#linear-gradient"/>
    <linearGradient id="linear-gradient-3" x1="0.807" y1="0.219" x2="0.216" y2="0.666" xlink:href="#linear-gradient"/>
    <linearGradient id="linear-gradient-4" x1="0.81" y1="0.606" x2="0.675" y2="0.553" gradientUnits="objectBoundingBox">
      <stop offset="0" stop-color="#fff" stop-opacity="0"/>
      <stop offset="0.99" stop-color="#dc841e"/>
    </linearGradient>
    <linearGradient id="linear-gradient-5" x1="0.822" y1="0.276" x2="0.299" y2="0.623" xlink:href="#linear-gradient"/>
  </defs>
  <g id="Grupo_4" data-name="Grupo 4" transform="translate(-1515 -7605.833)">
    <g id="bg-pattern-desktop" transform="translate(1514 7463)" opacity="0.099">
      <path id="Trazado_1" data-name="Trazado 1" d="M468.755,937.353,19.744,671.73C5.449,663.683-6.8,650.5,7.124,641.852L457.734,381.89c6.754-4.194,17.018-6.946,23.9-2.936L952.9,652.781c14.3,8.308,16.861,31.45,2.619,39.837l-427.6,244.315a59.64,59.64,0,0,1-59.17.42Z" fill="#6862e6"/>
    </g>
    <g id="Grupo_4-2" data-name="Grupo 4" transform="translate(-2335.146 5945.832)">
      <g id="illustration-woman-online-mobile" transform="translate(3949 1660.002)">
        <g id="Grupo_2" data-name="Grupo 2" transform="translate(0 0)">
          <path id="Trazado_46" data-name="Trazado 46" d="M413.355,535.075,16.632,300.677C4,293.578-6.826,281.944,5.484,274.313l398.133-229.4c5.97-3.7,15.036-6.131,21.12-2.589L841.124,283.954c12.63,7.329,14.9,27.752,2.312,35.149l-377.8,215.591a52.756,52.756,0,0,1-52.281.36Z" transform="translate(-0.071 103.934)" fill="#5b36a0"/>
          <path id="Trazado_47" data-name="Trazado 47" d="M413.355,532.052,16.632,297.66C4,290.558-6.826,278.924,5.484,271.293L403.617,41.9c5.97-3.7,15.036-6.114,21.12-2.589L841.124,280.938c12.63,7.333,14.9,27.752,2.312,35.153l-377.8,215.587a52.756,52.756,0,0,1-52.281.36Z" transform="translate(-0.071 96.126)" fill="#6862e6"/>
          <path id="Trazado_48" data-name="Trazado 48" d="M180.6,89.094l-78.282,44.657s120.591,73.567,145.25,83.928l45.085-64.756" transform="translate(265.392 229.834)" opacity="0.25" fill="url(#linear-gradient)"/>
          <path id="Trazado_49" data-name="Trazado 49" d="M229.628,180.844,151.34,136.277,73.022,180.934S113.8,205.82,152.785,228.67c24.749-17.506,49.523-35.2,76.843-47.829Z" transform="translate(189.324 352.329)" opacity="0.25" fill="url(#linear-gradient-2)"/>
          <path id="Trazado_50" data-name="Trazado 50" d="M105.514,72.142,55.847,100.473s4.208,25.972,28.87,36.321l65.026-41.619" transform="translate(144.734 185.823)" opacity="0.46" fill="url(#linear-gradient-3)"/>
          <ellipse id="Elipse_4" data-name="Elipse 4" cx="29.956" cy="21.092" rx="29.956" ry="21.092" transform="translate(244.602 244.113)" fill="#68e1fd"/>
          <ellipse id="Elipse_5" data-name="Elipse 5" cx="22.44" cy="9.181" rx="22.44" ry="9.181" transform="translate(252.097 243.581)" fill="#974c26"/>
          <path id="Trazado_51" data-name="Trazado 51" d="M92.253,110.887c0-4.139-.14-8.271-.464-12.421q-.14-1.618-.3-3.215l-.23-2.1a12.583,12.583,0,0,0-.324-2.158c-.14-.849-.288-1.69-.439-2.517A98.83,98.83,0,0,0,74.488,49.317,57.226,57.226,0,0,0,70,72.243c0,2.312.183,4.625.36,6.8v1.367a90.455,90.455,0,0,0,4.164,15.751,75.54,75.54,0,0,0,4.833,10.821q3.064,5.869,6.639,11.447c1.852,2.913,3.6,5.5,5.394,7.98a151.224,151.224,0,0,0,.827-15.518ZM80.479,64.331a3.722,3.722,0,0,0,0-1.618q.852.881,1.69,1.8a5.136,5.136,0,0,0-1.715-.187h.025Z" transform="translate(181.475 126.565)" fill="#999a1c"/>
          <path id="Trazado_52" data-name="Trazado 52" d="M84.962,111.668a116.819,116.819,0,0,0,6.315-10.706q.759-1.438,1.482-2.877l.946-1.92.9-1.989,1-2.312a98.822,98.822,0,0,0,7.7-41.619,57.244,57.244,0,0,0-16.183,16.88q-1.8,2.877-3.355,5.923l-.46.852-.119.36c-.439,1.043-.877,2.086-1.295,3.147a90.462,90.462,0,0,0-3.722,12.371,75.543,75.543,0,0,0-1.8,11.727q-.611,6.585-.6,13.205c0,3.445,0,6.592.209,9.62,3.075-4.092,6.175-8.3,8.99-12.673Zm15.266-45.535a3.682,3.682,0,0,0,.788-1.413q.252,1.2.439,2.316a5.1,5.1,0,0,0-1.223-.9Z" transform="translate(196.468 128.975)" fill="#999a1c"/>
          <path id="Trazado_53" data-name="Trazado 53" d="M99.794,124.391q3.492-1.73,6.941-3.744l1.733-1.079,1.133-.719,1.111-.784,1.295-.949a62.171,62.171,0,0,0,17.582-19.959,36.023,36.023,0,0,0-14.158,3.909c-1.273.647-2.5,1.367-3.726,2.1l-.529.324-.187.162-1.712,1.273a56.714,56.714,0,0,0-6.013,5.481,47.893,47.893,0,0,0-4.747,5.754q-2.409,3.406-4.625,6.941c-1.108,1.848-2.1,3.6-2.985,5.272,2.985-1.248,5.97-2.546,8.883-4Zm22.944-19.657a2.312,2.312,0,0,0,.881-.507q-.252.719-.554,1.438a3.237,3.237,0,0,0-.324-.924v-.025Zm-30.485,6.153c0-4.139-.14-8.271-.464-12.421q-.14-1.618-.3-3.215l-.23-2.1a12.587,12.587,0,0,0-.324-2.158c-.14-.849-.288-1.69-.439-2.517A98.83,98.83,0,0,0,74.488,49.317,57.226,57.226,0,0,0,70,72.243c0,2.312.183,4.625.36,6.8v1.367a90.455,90.455,0,0,0,4.164,15.751,75.54,75.54,0,0,0,4.833,10.821q3.064,5.869,6.639,11.447c1.852,2.913,3.6,5.5,5.394,7.98a151.224,151.224,0,0,0,.827-15.518ZM80.479,64.331a3.722,3.722,0,0,0,0-1.618q.852.881,1.69,1.8a5.136,5.136,0,0,0-1.715-.187h.025Z" transform="translate(181.475 126.565)" fill="#999a1c"/>
          <path id="Trazado_54" data-name="Trazado 54" d="M84.962,111.668a116.819,116.819,0,0,0,6.315-10.706q.759-1.438,1.482-2.877l.946-1.92.9-1.989,1-2.312a98.822,98.822,0,0,0,7.7-41.619,57.244,57.244,0,0,0-16.183,16.88q-1.8,2.877-3.355,5.923l-.46.852-.119.36c-.439,1.043-.877,2.086-1.295,3.147a90.462,90.462,0,0,0-3.722,12.371,75.543,75.543,0,0,0-1.8,11.727q-.611,6.585-.6,13.205c0,3.445,0,6.592.209,9.62,3.075-4.092,6.175-8.3,8.99-12.673Zm15.266-45.535a3.682,3.682,0,0,0,.788-1.413q.252,1.2.439,2.316a5.1,5.1,0,0,0-1.223-.9Z" transform="translate(196.468 128.975)" fill="#999a1c"/>
          <path id="Trazado_55" data-name="Trazado 55" d="M84.7,89.854q3.492-1.73,6.941-3.744l1.733-1.079,1.133-.719,1.111-.784,1.295-.949A62.171,62.171,0,0,0,114.493,62.62a36.023,36.023,0,0,0-14.158,3.909c-1.273.647-2.5,1.367-3.726,2.1l-.529.324-.187.162-1.712,1.273a56.715,56.715,0,0,0-6.013,5.481,47.892,47.892,0,0,0-4.747,5.754q-2.409,3.406-4.625,6.941c-1.108,1.848-2.1,3.6-2.985,5.272,2.985-1.248,5.97-2.546,8.883-4ZM107.643,70.2a2.313,2.313,0,0,0,.881-.507q-.252.719-.554,1.438a3.238,3.238,0,0,0-.324-.924v-.025Z" transform="translate(196.57 161.102)" fill="#999a1c"/>
          <path id="Trazado_56" data-name="Trazado 56" d="M168.092,84.245,124.765,105.06a9.969,9.969,0,0,0-.694,17.6l102.685,59.9a9.972,9.972,0,0,0,13.417-3.215l24.957-38.806" transform="translate(308.993 217.245)" fill="#a1482d"/>
          <path id="Trazado_57" data-name="Trazado 57" d="M464.539,201.5,119.054,2.477A15.593,15.593,0,0,0,95.7,15.984v207.05a12.946,12.946,0,0,0,6.473,11.22L470.494,446.81a8.354,8.354,0,0,0,12.536-7.239v-206.2A36.771,36.771,0,0,0,464.546,201.5Z" transform="translate(248.2 -0.409)" fill="#f47b56"/>
          <path id="Trazado_58" data-name="Trazado 58" d="M110.69,6.1,445.742,198.811a23.494,23.494,0,0,1,11.774,20.354v155.2a8.487,8.487,0,0,1-12.7,7.354L103.138,185.793a8.372,8.372,0,0,1-4.208-7.264V12.921A7.861,7.861,0,0,1,110.7,6.088Z" transform="translate(256.585 11.627)" fill="#fff"/>
          <ellipse id="Elipse_6" data-name="Elipse 6" cx="7.286" cy="8.325" rx="7.286" ry="8.325" transform="translate(497.949 295.488) rotate(-10.9)" fill="#ab643c"/>
          <path id="Trazado_59" data-name="Trazado 59" d="M127.242,86.379,282.957,179.9l76.919-44.7L222.433,55.229" transform="translate(330.088 141.914)" opacity="0.32" fill="url(#linear-gradient-4)"/>
          <path id="Trazado_60" data-name="Trazado 60" d="M308.589,133.358,140.252,30.745a5.829,5.829,0,0,0-8.742,5.25V94.469a6.113,6.113,0,0,0,2.938,5.276l168.3,100.441a5.808,5.808,0,0,0,8.674-5.071l.877-54.507A8.185,8.185,0,0,0,308.589,133.358Z" transform="translate(341.159 76.318)" fill="#e2ac00"/>
          <path id="Trazado_61" data-name="Trazado 61" d="M172.475,87.43c6.038,8.444,16.654,10.789,23.688,5.3s7.84-16.812,1.8-25.231S181.307,56.708,174.273,62.2s-7.84,16.791-1.8,25.231Z" transform="translate(436.999 152.331)" fill="#fff"/>
          <path id="Trazado_62" data-name="Trazado 62" d="M237.816,85.821,169.158,44.494a2.614,2.614,0,0,0-2.636,4.484L235.18,90.306a2.614,2.614,0,0,0,2.636-4.484Zm-2.823,16.791L140.36,45.648a2.614,2.614,0,0,0-2.517,4.488l94.522,56.985A2.614,2.614,0,0,0,235,102.633Z" transform="translate(355.14 113.426)" fill="#f2f2f2"/>
          <path id="Trazado_63" data-name="Trazado 63" d="M299.184,136.492,130.94,33.9a5.829,5.829,0,0,0-8.746,5.25V97.592a6.131,6.131,0,0,0,2.913,5.3l168.3,100.441a5.808,5.808,0,0,0,8.7-5.178l.877-54.514a8.185,8.185,0,0,0-3.8-7.146Z" transform="translate(316.975 84.515)" fill="#f47b56"/>
          <path id="Trazado_64" data-name="Trazado 64" d="M163.134,90.585c6.038,8.44,16.654,10.789,23.688,5.3s7.84-16.816,1.8-25.234-16.654-10.789-23.688-5.294S157.1,82.145,163.134,90.585Z" transform="translate(412.752 160.511)" fill="#fff"/>
          <path id="Trazado_65" data-name="Trazado 65" d="M228.659,88.977,159.95,47.649a2.614,2.614,0,0,0-2.636,4.488l68.658,41.327a2.614,2.614,0,0,0,2.636-4.488h.047Zm-2.845,16.9L131.2,48.825a2.614,2.614,0,0,0-2.636,4.488l94.644,56.963a2.614,2.614,0,0,0,2.636-4.488Z" transform="translate(330.71 121.602)" fill="#f2f2f2"/>
          <path id="Trazado_66" data-name="Trazado 66" d="M287.486,138.412,119.185,35.82a5.829,5.829,0,0,0-8.746,5.25V99.512a6.114,6.114,0,0,0,2.938,5.272l168.3,100.441a5.808,5.808,0,0,0,8.7-5.179l.878-54.514a8.181,8.181,0,0,0-3.794-7.12Z" transform="translate(286.454 89.489)" fill="#68e1fd"/>
          <path id="Trazado_67" data-name="Trazado 67" d="M287.486,138.412,119.185,35.82a5.829,5.829,0,0,0-8.746,5.25V99.512a6.114,6.114,0,0,0,2.938,5.272l168.3,100.441a5.808,5.808,0,0,0,8.7-5.179l.878-54.514a8.181,8.181,0,0,0-3.794-7.12Z" transform="translate(286.454 89.489)" fill="#68e1fd"/>
          <path id="Trazado_68" data-name="Trazado 68" d="M151.366,92.5c6.038,8.444,16.654,10.789,23.688,5.3s7.84-16.812,1.8-25.231-16.654-10.789-23.684-5.3-7.775,16.794-1.8,25.231Z" transform="translate(382.279 165.488)" fill="#fff"/>
          <path id="Trazado_69" data-name="Trazado 69" d="M216.928,90.893,148.241,49.57a2.614,2.614,0,0,0-2.64,4.488l68.665,41.327a2.614,2.614,0,0,0,2.64-4.488h.022Zm-2.845,16.816L119.447,50.746a2.614,2.614,0,0,0-2.636,4.488L211.444,112.2a2.614,2.614,0,0,0,2.64-4.488Z" transform="translate(300.2 126.575)" fill="#f2f2f2"/>
          <path id="Trazado_70" data-name="Trazado 70" d="M116.895,62.187a81.867,81.867,0,0,0-23.85,34.93c-8.372,23.123,12.561,60.916,12.561,60.916l32.571-25.785" transform="translate(236.175 159.978)" fill="#ff8f6f"/>
          <path id="Trazado_71" data-name="Trazado 71" d="M103.654,159.848l-8.839-4.88,2.316-12.626s13.162,1.248,14.316,5.919" transform="translate(245.902 368.075)" fill="#003b94"/>
          <path id="Trazado_72" data-name="Trazado 72" d="M114.625,179.314c1.989-1.223,4.071-2.312,6.132-3.4,5.11-2.8,12.49-5.689,15.636-10.94a6.114,6.114,0,0,0-.417-6.937c-4.625-5.6-14.744,3.6-19.937-2.589-1.018-1.226-1.507-20.678-1.507-20.678l-19.707,5.322s-3.33,39.083-2.96,41.489,7.146,4.625,7.146,4.625A17.465,17.465,0,0,0,104.7,183.9c2.057-1.5.183-19.844,2.819-17.262s3.794,12.6,3.794,12.6a13.588,13.588,0,0,0,3.308.09Z" transform="translate(238.168 348.422)" fill="#f47b56"/>
          <path id="Trazado_73" data-name="Trazado 73" d="M114.117,165.053l-8.836-4.812,2.312-12.626s13.162,1.248,14.32,5.919" transform="translate(273.074 381.765)" fill="#003b94"/>
          <path id="Trazado_74" data-name="Trazado 74" d="M125.145,184.568c1.989-1.223,4.071-2.312,6.113-3.4,5.114-2.8,12.493-5.689,15.64-10.94a6.113,6.113,0,0,0-.417-6.937c-4.628-5.6-14.744,3.6-19.941-2.589-1.018-1.226-1.5-20.678-1.5-20.678l-19.707,5.322s-3.355,39.22-2.985,41.536,7.146,4.625,7.146,4.625a17.466,17.466,0,0,0,5.693-2.312c2.057-1.5.183-19.844,2.819-17.262s3.794,12.6,3.794,12.6a13.6,13.6,0,0,0,3.334.043Z" transform="translate(265.379 362.062)" fill="#f47b56"/>
          <path id="Trazado_75" data-name="Trazado 75" d="M94.075,117.133l-5.808,77.634s9.253,12.766,40.277,5.668l.3-52.335m1.079-15.586c-.672,6.682,0,80.411,0,80.411s8.581,16.046,45.941,0l-.532-62.653" transform="translate(228.902 302.628)" fill="#3e2928"/>
          <path id="Trazado_76" data-name="Trazado 76" d="M89.081,239.212c2.543,1.762,3.424-7.282,6.081-5.732a151.4,151.4,0,0,0,30.629,13.5h.23a2.107,2.107,0,0,1,2.848,1.043,162.123,162.123,0,0,0,20.1,4.625c8.717,1.388,15.935-5.067,24.886-5.5,0-34.275.165-131.825-14.431-152.64l-43.19-14.521c-.209,3.56-20.959,27.611-20.448,56.938a660.794,660.794,0,0,1-4.47,74.56c-.115,1.759-2.158,25.857-2.24,27.727Z" transform="translate(231.005 206.193)" fill="#3e2928"/>
          <path id="Trazado_77" data-name="Trazado 77" d="M145.9,74.737l-3.977,39.313s-32.222,1.295-46.1-8.271V72.425" transform="translate(248.509 186.558)" fill="#ff8f6f"/>
          <path id="Trazado_78" data-name="Trazado 78" d="M138.168,75.51l-3.283,4.484a107.877,107.877,0,0,0,4.625-11.216c.928-2.611-3.262-3.654-4.186-1.039l-.485,1.341q.6-2.082,1.133-4.186a2.158,2.158,0,1,0-4.186-1.043,112.091,112.091,0,0,1-3.262,10.735,76.6,76.6,0,0,0,1.528-9.483c.277-2.751-4.049-2.636-4.315,0a68.088,68.088,0,0,1-1.942,10.753,20.027,20.027,0,0,0-.36-3.7,2.157,2.157,0,0,0-.9-1.546q-.176-.719-.417-1.438a2.158,2.158,0,0,0-4.236.647L117.605,86a19.419,19.419,0,0,1-3.028,4.628,75.566,75.566,0,0,1,6.013,4.625,61.442,61.442,0,0,1,4.905,4.625q2.082-2.589,4-5.272a2.314,2.314,0,0,0,.414-.464Q135.69,85.59,141.85,77.3c1.712-1.9-2.061-4-3.7-1.8Z" transform="translate(297.208 159.907)" fill="#ffb5a9"/>
          <path id="Trazado_79" data-name="Trazado 79" d="M104.115,63.1s15.223,4.092,21.4,13.878A173.969,173.969,0,0,1,135.714,98l11.242-17.459s13.647,4.186,19.06,10.893c0,0-16.183,35.386-30.3,38.414s-29.1-20.768-29.1-20.768-3.1,9.943-2.5-.672" transform="translate(269.845 162.349)" fill="#ff8f6f"/>
          <path id="Trazado_80" data-name="Trazado 80" d="M148.865,132.468a30.826,30.826,0,0,1-9.649-13.737c-1.827-6.221.464-11.68,2.589-17.463a56.255,56.255,0,0,0,3.981-17.981c.187-6.056-.507-12.119-.924-18.154a1.759,1.759,0,0,1,0-.784c-2.035-6.833-6.2-12.6-14.414-13.306-21.257-1.8-22.462,21.739-22.3,31.312s1.18,16.05-5.876,20.052-12.148,14.5-5.416,22.987.694,5.394-3.794,12.946-3.33,16.952,5.876,20.354,52-2.985,55.935-6.941a8.163,8.163,0,0,0,2.014-5.783A22.433,22.433,0,0,0,148.865,132.468Z" transform="translate(234.765 130.794)" fill="#007f68"/>
          <path id="Trazado_81" data-name="Trazado 81" d="M135.249,28.8a33.876,33.876,0,0,1,6.013,17.578,11.562,11.562,0,0,1-1.967,8.21,4.743,4.743,0,0,1-5.754,1,8.861,8.861,0,0,1-3.1-2.086,10.789,10.789,0,0,1-1.989-2.517L127.9,49.9a3.743,3.743,0,0,1-.557.784,4.006,4.006,0,0,1-1.9.809,5.754,5.754,0,0,1-3.424-.414,12.838,12.838,0,0,1-6.06-5.452,17.456,17.456,0,0,1-2.683-8.764,8.631,8.631,0,0,1,2.158-6.941,4.952,4.952,0,0,1,5.624-.877,8.3,8.3,0,0,1,2.517,1.575,9.709,9.709,0,0,1,1.669,1.827l.417.741V31.134l4.625,1.8.464,13a5.1,5.1,0,0,0,.831,2.614,4.075,4.075,0,0,0,1.9,1.69q3.355,1.316,3.1-5.786a25.019,25.019,0,0,0-4.466-13.065,21.9,21.9,0,0,0-10.249-8.739,8.631,8.631,0,0,0-9.62,1.223,13.065,13.065,0,0,0-3.726,10.684,27.561,27.561,0,0,0,4.628,13.878,21.325,21.325,0,0,0,9.875,9.249,11.676,11.676,0,0,0,4.628.9,6.139,6.139,0,0,0,3.006-.554l.924-.507,2.8,5.2-.464.324a11.045,11.045,0,0,1-1.367.647,8.747,8.747,0,0,1-2.312.647,11.568,11.568,0,0,1-3.075,0,15.5,15.5,0,0,1-3.909-1,25.447,25.447,0,0,1-9.253-6.8,40.31,40.31,0,0,1-7.171-11.195,34.268,34.268,0,0,1-2.963-12.418A19.93,19.93,0,0,1,106,22.5a11.749,11.749,0,0,1,6.57-5.783,12.659,12.659,0,0,1,9.113.46,29.4,29.4,0,0,1,13.558,11.612Zm-10.2,16.445A4.636,4.636,0,0,0,126,41.819a8.832,8.832,0,0,0-1.226-4.279,5.876,5.876,0,0,0-2.8-2.543,2.517,2.517,0,0,0-2.841.36,4.233,4.233,0,0,0-1.021,3.355,8.657,8.657,0,0,0,1.32,4.315,6.214,6.214,0,0,0,2.938,2.636,2.312,2.312,0,0,0,2.683-.417M408.375,279.22a33.761,33.761,0,0,1,6.013,17.575,11.561,11.561,0,0,1-1.964,8.21,4.765,4.765,0,0,1-5.754,1,9.111,9.111,0,0,1-3.1-2.086,11.193,11.193,0,0,1-1.989-2.517l-.554-1.079a4.48,4.48,0,0,1-.557.784,3.906,3.906,0,0,1-1.9.809,5.559,5.559,0,0,1-3.4-.392,12.838,12.838,0,0,1-6.06-5.459,17.388,17.388,0,0,1-2.708-8.785,8.5,8.5,0,0,1,2.158-6.941,4.927,4.927,0,0,1,5.6-.878,8.232,8.232,0,0,1,2.517,1.572,10.067,10.067,0,0,1,1.669,1.852l.439.737v-2.082l4.625,1.8.464,13a5.233,5.233,0,0,0,.831,2.614,4.035,4.035,0,0,0,1.9,1.69c2.312.878,3.262-1.043,3.121-5.783a25.138,25.138,0,0,0-4.463-13.09,21.937,21.937,0,0,0-10.224-8.717,8.652,8.652,0,0,0-9.623,1.2A13.065,13.065,0,0,0,381.781,285a27.471,27.471,0,0,0,4.625,13.878,21.419,21.419,0,0,0,10,8.951,11.994,11.994,0,0,0,4.625.924,6.362,6.362,0,0,0,3.006-.557l.924-.507,2.8,5.2-.468.324a11.482,11.482,0,0,1-3.675,1.295,11.8,11.8,0,0,1-3.1,0,15.464,15.464,0,0,1-3.884-1.018,25.446,25.446,0,0,1-9.253-6.775,40.4,40.4,0,0,1-7.192-11.22,34.2,34.2,0,0,1-2.96-12.414,19.814,19.814,0,0,1,2.129-10.407,11.842,11.842,0,0,1,6.57-5.808,12.817,12.817,0,0,1,9.134.468,29.445,29.445,0,0,1,13.281,11.885Zm-10.2,16.442a4.639,4.639,0,0,0,.971-3.424,8.764,8.764,0,0,0-1.248-4.279,5.782,5.782,0,0,0-2.776-2.542,2.517,2.517,0,0,0-2.845.36,4.186,4.186,0,0,0-1.043,3.352,8.606,8.606,0,0,0,1.32,4.279,6.282,6.282,0,0,0,2.938,2.661,2.312,2.312,0,0,0,2.683-.4" transform="translate(269.293 40.29)" fill="#f47b56"/>
          <path id="Trazado_82" data-name="Trazado 82" d="M173.367,148.832l-78.3-44.542L16.782,148.919s43.561,27.194,82.536,50.044c24.752-17.485,46.75-37.487,74.049-50.138Z" transform="translate(43.315 269.285)" opacity="0.25" fill="url(#linear-gradient-5)"/>
        </g>
        <g id="Grupo_3" data-name="Grupo 3" transform="translate(-88 22)">
          <g id="Grupo_3-2" data-name="Grupo 3" transform="translate(75.265 285.803)">
            <path id="Trazado_83" data-name="Trazado 83" d="M0,19.057V115.92l75.462,43.215,85.208-50.393V11.883" transform="translate(0 -11.883)"/>
            <path id="Trazado_84" data-name="Trazado 84" d="M0,19.057V115.92l75.462,43.215,85.208-50.393V11.883" transform="translate(0 -11.883)" fill="#ff9271"/>
          </g>
          <path id="Trazado_85" data-name="Trazado 85" d="M70.984,130.291v96.863l85.208-50.393V79.883Z" transform="translate(79.743 205.92)" fill="#df5c34"/>
          <path id="Trazado_86" data-name="Trazado 86" d="M50,117.908,137.556,68l73.11,42.733-85.2,50.408Z" transform="translate(25.265 175.07)" fill="#f47b56"/>
          <path id="Trazado_87" data-name="Trazado 87" d="M98.3,74.258a46.646,46.646,0,0,1,25.533,5.628c4.47,2.629,6.912,5.373,7.257,8.235a7.6,7.6,0,0,1-4.607,7.444,16.388,16.388,0,0,1-5.369,2.122,18.187,18.187,0,0,1-4.769.486l-1.751-.137a4.517,4.517,0,0,1,.324,1.223,5.631,5.631,0,0,1-.921,2.791,10.268,10.268,0,0,1-3.776,3.711,22.714,22.714,0,0,1-12.047,3.183,23.817,23.817,0,0,1-12.511-3.157,9.523,9.523,0,0,1-5.574-7.473A8.074,8.074,0,0,1,84.695,91.1a15.263,15.263,0,0,1,4.24-1.823A16.5,16.5,0,0,1,92.6,88.65h1.269L91.56,87.265l6.473-4.035,15,8.832a7.868,7.868,0,0,0,7.462,0q4.768-2.974-3.409-7.818A34.631,34.631,0,0,0,98.1,80.022a38.965,38.965,0,0,0-19.811,5.7,14.32,14.32,0,0,0-8.084,12.155c0,4.614,2.877,8.717,8.476,12.015a42.075,42.075,0,0,0,39.853-.482,22.213,22.213,0,0,0,5.5-4.614,10.188,10.188,0,0,0,2.305-3.92l.324-1.438,8.544.482a7.2,7.2,0,0,1,0,.788,14.486,14.486,0,0,1-.622,2.075,14.745,14.745,0,0,1-1.474,3.089,21.07,21.07,0,0,1-3.039,3.6,28.511,28.511,0,0,1-4.952,3.816,46.031,46.031,0,0,1-16.769,6.042,63.249,63.249,0,0,1-19.56.36A44.765,44.765,0,0,1,72,114.193a21.807,21.807,0,0,1-9.519-10.023,14.744,14.744,0,0,1,0-11.867A22.821,22.821,0,0,1,71.95,81.946a52.083,52.083,0,0,1,26.349-7.7ZM106.685,98.1a4.934,4.934,0,0,0-2.877-3.6,11.831,11.831,0,0,0-5.991-1.636,10.105,10.105,0,0,0-5.574,1.438,4.1,4.1,0,0,0-2.3,3.6,4.607,4.607,0,0,0,2.715,3.621,11.759,11.759,0,0,0,6.113,1.546,10.954,10.954,0,0,0,5.851-1.521,3.711,3.711,0,0,0,2.158-3.438" transform="translate(54.432 191.044)" fill="#3e2928"/>
        </g>
      </g>
    </g>
  </g>
</svg>
