<svg xmlns="http://www.w3.org/2000/svg" xmlns:xlink="http://www.w3.org/1999/xlink" width="1912.223" height="2075.553" viewBox="0 0 1912.223 2075.553">
  <defs>
    <linearGradient id="linear-gradient" x1="0.612" y1="0.369" x2="0.408" y2="0.555" gradientUnits="objectBoundingBox">
      <stop offset="0" stop-color="#78b46a"/>
      <stop offset="0.03" stop-color="#7f3500"/>
      <stop offset="1" stop-color="#fff"/>
    </linearGradient>
    <linearGradient id="linear-gradient-2" x1="0.822" y1="0.286" x2="0.299" y2="0.624" xlink:href="#linear-gradient"/>
    <linearGradient id="linear-gradient-3" x1="0.807" y1="0.219" x2="0.216" y2="0.666" xlink:href="#linear-gradient"/>
    <linearGradient id="linear-gradient-4" x1="0.81" y1="0.606" x2="0.675" y2="0.553" gradientUnits="objectBoundingBox">
      <stop offset="0" stop-color="#fff" stop-opacity="0"/>
      <stop offset="0.99" stop-color="#dc841e"/>
    </linearGradient>
    <linearGradient id="linear-gradient-5" x1="0.822" y1="0.276" x2="0.299" y2="0.623" xlink:href="#linear-gradient"/>
  </defs>
  <g id="Grupo_2" data-name="Grupo 2" transform="translate(94.3 -6430.018)">
    <g id="bg-pattern-desktop" transform="translate(851 7304)" opacity="0.099">
      <path id="Trazado_1" data-name="Trazado 1" d="M927.921,1487.417,424.07,1189.352,38.144,961.048C9.816,945.1-14.465,918.978,13.136,901.841l892.946-515.15c13.384-8.311,33.723-13.764,47.367-5.818L1887.325,923.5c28.33,16.464,33.412,62.323,5.19,78.942l-847.34,484.144a118.184,118.184,0,0,1-117.253.833Z" transform="translate(-946.3 -301)" fill="#6862e6"/>
      <path id="Trazado_2" data-name="Trazado 2" d="M847.563,1015.151,34.924,534.415c-25.872-14.564-48.048-38.423-22.84-54.075L827.617,9.85c12.224-7.59,30.8-12.571,43.261-5.314l852.915,495.584c25.873,15.036,30.516,56.92,4.74,72.1L954.651,1014.391A107.939,107.939,0,0,1,847.563,1015.151Z" transform="translate(-780.776 -872.96)" fill="none" stroke="#1e1f36" stroke-width="4"/>
      <path id="Trazado_3" data-name="Trazado 3" d="M847.563,1090.151,34.924,609.415c-25.872-14.564-48.048-38.423-22.84-54.074L827.617,84.85c12.224-7.59,30.8-12.571,43.261-5.314l852.915,495.584c25.873,15.036,30.516,56.919,4.74,72.1L954.651,1089.391A107.939,107.939,0,0,1,847.563,1090.151Z" transform="translate(-792.913 -687.652)" fill="none" stroke="#242431" stroke-width="4"/>
    </g>
    <g id="Grupo_4" data-name="Grupo 4" transform="translate(128.327 6911.107)">
      <path id="bg-pattern-mobile" d="M358.611,349.745Z" transform="translate(565.987 1151.051)" fill="#6862e6" opacity="0.099"/>
      <g id="illustration-woman-online-mobile" transform="translate(0 0)">
        <g id="Grupo_2-2" data-name="Grupo 2" transform="translate(0 0)">
          <path id="Trazado_46" data-name="Trazado 46" d="M810.054,1009.707,32.529,550.316C7.776,536.4-13.446,513.6,10.68,498.647L790.967,49.06c11.7-7.259,29.468-12.017,41.393-5.075l816.064,473.558c24.753,14.364,29.193,54.39,4.532,68.887L912.518,1008.96a103.4,103.4,0,0,1-102.464.7Z" transform="translate(-0.071 242.667)" fill="#5b36a0"/>
          <path id="Trazado_47" data-name="Trazado 47" d="M810.054,1006.668,32.529,547.291c-24.753-13.92-45.974-36.72-21.849-51.676L790.967,46.035c11.7-7.252,29.468-11.982,41.393-5.075l816.064,473.558c24.753,14.371,29.193,54.39,4.532,68.895L912.518,1005.935a103.394,103.394,0,0,1-102.464.7Z" transform="translate(-0.071 224.477)" fill="#6862e6"/>
          <path id="Trazado_48" data-name="Trazado 48" d="M255.744,89.094,102.322,176.617S338.664,320.8,386.992,341.1L475.353,214.19" transform="translate(618.348 535.962)" opacity="0.25" fill="url(#linear-gradient)"/>
          <path id="Trazado_49" data-name="Trazado 49" d="M379.95,223.623,226.514,136.277,73.022,223.8s79.925,48.772,156.325,93.556c48.5-34.31,97.058-68.986,150.6-93.739Z" transform="translate(441.141 821.327)" opacity="0.25" fill="url(#linear-gradient-2)"/>
          <path id="Trazado_50" data-name="Trazado 50" d="M153.187,72.142l-97.34,55.524s8.246,50.9,56.582,71.185l127.443-81.567" transform="translate(337.266 433.436)" opacity="0.46" fill="url(#linear-gradient-3)"/>
          <ellipse id="Elipse_4" data-name="Elipse 4" cx="58.71" cy="41.337" rx="58.71" ry="41.337" transform="translate(479.388 478.429)" fill="#68e1fd"/>
          <ellipse id="Elipse_5" data-name="Elipse 5" cx="43.98" cy="17.994" rx="43.98" ry="17.994" transform="translate(494.076 477.386)" fill="#974c26"/>
          <path id="Trazado_51" data-name="Trazado 51" d="M113.614,169.986c0-8.112-.275-16.211-.909-24.344q-.275-3.172-.592-6.3l-.451-4.123a24.658,24.658,0,0,0-.634-4.229c-.275-1.663-.564-3.313-.86-4.934A193.693,193.693,0,0,0,78.8,49.317a112.156,112.156,0,0,0-8.789,44.931c0,4.532.359,9.064.7,13.321v2.678a177.277,177.277,0,0,0,8.162,30.87,148.045,148.045,0,0,0,9.473,21.208q6,11.5,13.011,22.434c3.63,5.709,7.048,10.784,10.572,15.64a296.382,296.382,0,0,0,1.621-30.412ZM90.538,78.743a7.293,7.293,0,0,0,0-3.172q1.67,1.727,3.313,3.524a10.065,10.065,0,0,0-3.362-.367h.049Z" transform="translate(422.856 295.39)" fill="#999a1c"/>
          <path id="Trazado_52" data-name="Trazado 52" d="M93.782,170.625a228.943,228.943,0,0,0,12.376-20.982q1.487-2.819,2.9-5.638l1.854-3.764,1.769-3.9,1.952-4.532a193.678,193.678,0,0,0,15.1-81.567A112.191,112.191,0,0,0,98.018,83.328q-3.524,5.638-6.576,11.608l-.9,1.67-.233.7c-.86,2.044-1.72,4.088-2.537,6.167a177.3,177.3,0,0,0-7.295,24.245,148.057,148.057,0,0,0-3.524,22.984q-1.2,12.9-1.177,25.88c0,6.752,0,12.919.409,18.854,6.026-8.021,12.1-16.267,17.62-24.837ZM123.7,81.383a7.217,7.217,0,0,0,1.543-2.77q.493,2.354.86,4.539a10,10,0,0,0-2.4-1.769Z" transform="translate(457.785 301.002)" fill="#999a1c"/>
          <path id="Trazado_53" data-name="Trazado 53" d="M128.393,196.452q6.844-3.39,13.6-7.337l3.4-2.114,2.22-1.41,2.178-1.536,2.537-1.861a121.847,121.847,0,0,0,34.458-39.117,70.6,70.6,0,0,0-27.748,7.661c-2.495,1.269-4.9,2.678-7.3,4.123l-1.036.634-.366.317-3.355,2.5a111.157,111.157,0,0,0-11.784,10.741,93.87,93.87,0,0,0-9.3,11.277q-4.722,6.674-9.064,13.6c-2.171,3.623-4.123,7.048-5.85,10.332,5.85-2.446,11.7-4.99,17.409-7.844Zm44.966-38.525a4.532,4.532,0,0,0,1.727-.994q-.493,1.41-1.085,2.819a6.344,6.344,0,0,0-.634-1.811v-.049Zm-59.746,12.059c0-8.112-.275-16.21-.909-24.344q-.275-3.172-.592-6.3l-.451-4.123a24.667,24.667,0,0,0-.634-4.229c-.275-1.663-.564-3.313-.86-4.934A193.693,193.693,0,0,0,78.8,49.317a112.156,112.156,0,0,0-8.789,44.931c0,4.532.359,9.064.7,13.321v2.678a177.278,177.278,0,0,0,8.162,30.87,148.045,148.045,0,0,0,9.473,21.208q6,11.5,13.011,22.434c3.63,5.709,7.048,10.783,10.572,15.64a296.383,296.383,0,0,0,1.621-30.412ZM90.538,78.743a7.293,7.293,0,0,0,0-3.172q1.67,1.727,3.313,3.524a10.066,10.066,0,0,0-3.362-.366h.049Z" transform="translate(422.856 295.39)" fill="#999a1c"/>
          <path id="Trazado_54" data-name="Trazado 54" d="M93.782,170.625a228.943,228.943,0,0,0,12.376-20.982q1.487-2.819,2.9-5.638l1.854-3.764,1.769-3.9,1.952-4.532a193.678,193.678,0,0,0,15.1-81.567A112.191,112.191,0,0,0,98.018,83.328q-3.524,5.638-6.576,11.608l-.9,1.67-.233.7c-.86,2.044-1.72,4.088-2.537,6.167a177.3,177.3,0,0,0-7.295,24.245,148.057,148.057,0,0,0-3.524,22.984q-1.2,12.9-1.177,25.88c0,6.752,0,12.919.409,18.854,6.026-8.021,12.1-16.267,17.62-24.837ZM123.7,81.383a7.217,7.217,0,0,0,1.543-2.77q.493,2.354.86,4.539a10,10,0,0,0-2.4-1.769Z" transform="translate(457.785 301.002)" fill="#999a1c"/>
          <path id="Trazado_55" data-name="Trazado 55" d="M93.229,115.995q6.844-3.39,13.6-7.337l3.4-2.114,2.22-1.41,2.178-1.536,2.537-1.861A121.847,121.847,0,0,0,151.622,62.62a70.6,70.6,0,0,0-27.748,7.661c-2.495,1.269-4.9,2.678-7.3,4.123l-1.036.634-.367.317-3.355,2.495A111.153,111.153,0,0,0,100.03,88.592a93.862,93.862,0,0,0-9.3,11.277q-4.722,6.675-9.064,13.6c-2.171,3.623-4.123,7.048-5.85,10.332,5.85-2.446,11.7-4.99,17.409-7.844ZM138.2,77.47a4.532,4.532,0,0,0,1.727-.994q-.493,1.41-1.085,2.819a6.344,6.344,0,0,0-.634-1.811v-.049Z" transform="translate(458.021 375.847)" fill="#999a1c"/>
          <path id="Trazado_56" data-name="Trazado 56" d="M215.1,84.245l-84.915,40.794a19.537,19.537,0,0,0-1.36,34.493l201.25,117.392a19.544,19.544,0,0,0,26.3-6.3l48.913-76.055" transform="translate(719.92 506.635)" fill="#a1482d"/>
          <path id="Trazado_57" data-name="Trazado 57" d="M818.575,394.529,141.47,4.463A30.56,30.56,0,0,0,95.7,30.935V436.726a25.373,25.373,0,0,0,12.686,21.99L830.246,875.3a16.372,16.372,0,0,0,24.569-14.188V456.989a72.066,72.066,0,0,0-36.227-62.46Z" transform="translate(578.298 -0.409)" fill="#f47b56"/>
          <path id="Trazado_58" data-name="Trazado 58" d="M121.977,7.11,778.635,384.8a46.045,46.045,0,0,1,23.075,39.892V728.864a16.633,16.633,0,0,1-24.887,14.413L107.176,359.286a16.408,16.408,0,0,1-8.246-14.237V20.48A15.407,15.407,0,0,1,122.005,7.089Z" transform="translate(597.833 27.631)" fill="#fff"/>
          <ellipse id="Elipse_6" data-name="Elipse 6" cx="14.279" cy="16.316" rx="14.279" ry="16.316" transform="translate(975.915 579.117) rotate(-10.9)" fill="#ab643c"/>
          <path id="Trazado_59" data-name="Trazado 59" d="M127.242,116.279l305.18,183.3,150.75-87.614L313.8,55.229" transform="translate(769.065 331.146)" opacity="0.32" fill="url(#linear-gradient-4)"/>
          <path id="Trazado_60" data-name="Trazado 60" d="M478.565,232.6,148.647,31.5a11.425,11.425,0,0,0-17.134,10.29v114.6a11.982,11.982,0,0,0,5.758,10.339L467.119,363.577a11.383,11.383,0,0,0,17-9.938l1.72-106.827A16.041,16.041,0,0,0,478.565,232.6Z" transform="translate(794.854 178.333)" fill="#e2ac00"/>
          <path id="Trazado_61" data-name="Trazado 61" d="M176.365,114.488C188.2,131.037,209,135.632,222.791,124.87s15.365-32.95,3.524-49.449-32.639-21.144-46.425-10.375-15.365,32.907-3.524,49.449Z" transform="translate(1018.123 355.413)" fill="#fff"/>
          <path id="Trazado_62" data-name="Trazado 62" d="M334.691,125.718l-134.561-81a5.124,5.124,0,0,0-5.166,8.789l134.561,81a5.124,5.124,0,0,0,5.166-8.789Zm-5.533,32.907L143.689,46.985a5.124,5.124,0,0,0-4.934,8.8L324.006,167.464a5.124,5.124,0,0,0,5.166-8.8Z" transform="translate(827.426 264.779)" fill="#f2f2f2"/>
          <path id="Trazado_63" data-name="Trazado 63" d="M469.074,235.716,139.339,34.657A11.425,11.425,0,0,0,122.2,44.947V159.477a12.017,12.017,0,0,0,5.709,10.382L457.755,366.711A11.383,11.383,0,0,0,474.8,356.562l1.72-106.841a16.042,16.042,0,0,0-7.45-14Z" transform="translate(738.516 197.429)" fill="#f47b56"/>
          <path id="Trazado_64" data-name="Trazado 64" d="M167.023,117.646c11.834,16.542,32.639,21.144,46.425,10.382s15.365-32.957,3.524-49.456S184.333,57.428,170.547,68.2,155.189,101.1,167.023,117.646Z" transform="translate(961.637 374.47)" fill="#fff"/>
          <path id="Trazado_65" data-name="Trazado 65" d="M325.775,128.88l-134.66-81a5.124,5.124,0,0,0-5.166,8.8l134.561,81a5.124,5.124,0,0,0,5.166-8.8h.092ZM320.2,162.006,134.766,50.189a5.124,5.124,0,0,0-5.166,8.8L315.09,170.625a5.124,5.124,0,0,0,5.166-8.8Z" transform="translate(770.513 283.826)" fill="#f2f2f2"/>
          <path id="Trazado_66" data-name="Trazado 66" d="M457.431,237.639,127.583,36.573a11.425,11.425,0,0,0-17.141,10.29V161.4a11.982,11.982,0,0,0,5.758,10.332L446.048,368.585A11.383,11.383,0,0,0,463.1,358.435l1.72-106.841a16.035,16.035,0,0,0-7.436-13.955Z" transform="translate(667.416 209.017)" fill="#68e1fd"/>
          <path id="Trazado_67" data-name="Trazado 67" d="M457.431,237.639,127.583,36.573a11.425,11.425,0,0,0-17.141,10.29V161.4a11.982,11.982,0,0,0,5.758,10.332L446.048,368.585A11.383,11.383,0,0,0,463.1,358.435l1.72-106.841a16.035,16.035,0,0,0-7.436-13.955Z" transform="translate(667.416 209.017)" fill="#68e1fd"/>
          <path id="Trazado_68" data-name="Trazado 68" d="M155.227,119.558c11.834,16.549,32.639,21.144,46.425,10.382s15.365-32.95,3.524-49.449-32.639-21.144-46.418-10.382-15.238,32.914-3.524,49.449Z" transform="translate(890.647 386.062)" fill="#fff"/>
          <path id="Trazado_69" data-name="Trazado 69" d="M314.066,130.8,179.448,49.809a5.124,5.124,0,0,0-5.173,8.8l134.575,81a5.124,5.124,0,0,0,5.173-8.8h.042Zm-5.575,32.957L123.014,52.114a5.124,5.124,0,0,0-5.166,8.8L303.317,172.55a5.124,5.124,0,0,0,5.173-8.8Z" transform="translate(699.436 295.412)" fill="#f2f2f2"/>
          <path id="Trazado_70" data-name="Trazado 70" d="M141.685,62.187a160.449,160.449,0,0,0-46.743,68.458c-16.408,45.319,24.619,119.387,24.619,119.387L183.395,199.5" transform="translate(550.286 373.228)" fill="#ff8f6f"/>
          <path id="Trazado_71" data-name="Trazado 71" d="M112.139,176.652l-17.324-9.564,4.539-24.746s25.8,2.446,28.058,11.6" transform="translate(572.945 858.008)" fill="#003b94"/>
          <path id="Trazado_72" data-name="Trazado 72" d="M136.5,222.069c3.9-2.4,7.978-4.532,12.017-6.66,10.015-5.483,24.478-11.15,30.645-21.44a11.982,11.982,0,0,0-.818-13.6c-9.064-10.967-28.9,7.048-39.074-5.074-1.995-2.4-2.953-40.526-2.953-40.526L97.693,145.2s-6.526,76.6-5.8,81.313,14,9.064,14,9.064a34.23,34.23,0,0,0,11.157-4.532c4.031-2.946.359-38.891,5.526-33.831s7.436,24.7,7.436,24.7a26.631,26.631,0,0,0,6.484.176Z" transform="translate(554.928 812.224)" fill="#f47b56"/>
          <path id="Trazado_73" data-name="Trazado 73" d="M122.6,181.791l-17.317-9.43,4.532-24.746s25.8,2.446,28.065,11.6" transform="translate(636.244 889.9)" fill="#003b94"/>
          <path id="Trazado_74" data-name="Trazado 74" d="M147.058,227.323c3.9-2.4,7.978-4.532,11.982-6.66,10.022-5.483,24.485-11.15,30.652-21.44a11.982,11.982,0,0,0-.818-13.6c-9.071-10.967-28.9,7.048-39.081-5.075-1.995-2.4-2.946-40.526-2.946-40.526l-38.623,10.431s-6.576,76.866-5.85,81.4,14,9.064,14,9.064a34.231,34.231,0,0,0,11.157-4.532c4.031-2.946.359-38.891,5.526-33.831s7.436,24.7,7.436,24.7a26.657,26.657,0,0,0,6.533.085Z" transform="translate(618.318 844.001)" fill="#f47b56"/>
          <path id="Trazado_75" data-name="Trazado 75" d="M99.65,117.133,88.267,269.286s18.135,25.021,78.938,11.108l.585-102.57m2.114-30.546c-1.318,13.1,0,157.594,0,157.594s16.817,31.448,90.039,0L258.9,182.081" transform="translate(533.343 705.543)" fill="#3e2928"/>
          <path id="Trazado_76" data-name="Trazado 76" d="M89.084,392.047c4.983,3.454,6.71-14.272,11.918-11.235a296.724,296.724,0,0,0,60.028,26.465h.451a4.13,4.13,0,0,1,5.582,2.044,317.755,317.755,0,0,0,39.4,9.064c17.084,2.721,31.23-9.931,48.772-10.783,0-67.175.324-258.36-28.284-299.154L142.3,79.988c-.409,6.978-41.076,54.115-40.075,111.592a1295.077,1295.077,0,0,1-8.761,146.127c-.225,3.447-4.229,50.675-4.391,54.34Z" transform="translate(538.242 480.889)" fill="#3e2928"/>
          <path id="Trazado_77" data-name="Trazado 77" d="M193.97,76.957l-7.8,77.049s-63.15,2.537-90.356-16.21V72.425" transform="translate(579.018 435.148)" fill="#ff8f6f"/>
          <path id="Trazado_78" data-name="Trazado 78" d="M160.812,88.324l-6.435,8.789a211.41,211.41,0,0,0,9.064-21.983c1.818-5.117-6.393-7.161-8.2-2.037l-.951,2.629q1.184-4.081,2.22-8.2a4.229,4.229,0,1,0-8.2-2.044,219.7,219.7,0,0,1-6.393,21.038,150.134,150.134,0,0,0,3-18.586c.543-5.392-7.936-5.166-8.458,0A133.448,133.448,0,0,1,132.641,89a39.254,39.254,0,0,0-.7-7.252,4.229,4.229,0,0,0-1.762-3.031q-.345-1.41-.818-2.819a4.229,4.229,0,0,0-8.3,1.269l-.543,31.716a38.06,38.06,0,0,1-5.935,9.071,148.1,148.1,0,0,1,11.784,9.064,120.408,120.408,0,0,1,9.614,9.064q4.081-5.075,7.844-10.332a4.536,4.536,0,0,0,.811-.909q11.326-16.76,23.4-33c3.355-3.714-4.038-7.837-7.259-3.524Z" transform="translate(692.467 373.062)" fill="#ffb5a9"/>
          <path id="Trazado_79" data-name="Trazado 79" d="M104.189,63.1s29.834,8.021,41.936,27.2a340.954,340.954,0,0,1,20,41.2l22.032-34.218s26.747,8.2,37.355,21.348c0,0-31.716,69.353-59.387,75.287s-57.033-40.7-57.033-40.7-6.075,19.488-4.9-1.318" transform="translate(628.724 378.75)" fill="#ff8f6f"/>
          <path id="Trazado_80" data-name="Trazado 80" d="M204.863,210.719a60.415,60.415,0,0,1-18.91-26.923c-3.58-12.193.909-22.892,5.075-34.225a110.253,110.253,0,0,0,7.8-35.24c.366-11.869-.994-23.752-1.811-35.579a3.448,3.448,0,0,1,0-1.536c-3.989-13.391-12.151-24.7-28.249-26.078-41.661-3.524-44.022,42.605-43.7,61.367s2.312,31.455-11.517,39.3-23.808,28.418-10.614,45.051,1.36,10.572-7.436,25.373-6.526,33.224,11.517,39.892,101.915-5.85,109.625-13.6a16,16,0,0,0,3.947-11.333A43.966,43.966,0,0,0,204.863,210.719Z" transform="translate(547.002 305.241)" fill="#007f68"/>
          <path id="Trazado_81" data-name="Trazado 81" d="M165.412,41A66.393,66.393,0,0,1,177.2,75.449a22.659,22.659,0,0,1-3.855,16.091,9.3,9.3,0,0,1-11.277,1.952,17.366,17.366,0,0,1-6.075-4.088,21.144,21.144,0,0,1-3.9-4.934l-1.085-2.114a7.336,7.336,0,0,1-1.092,1.536,7.851,7.851,0,0,1-3.714,1.586,11.276,11.276,0,0,1-6.71-.811,25.161,25.161,0,0,1-11.876-10.685,34.211,34.211,0,0,1-5.258-17.176,16.915,16.915,0,0,1,4.229-13.6,9.705,9.705,0,0,1,11.023-1.72,16.26,16.26,0,0,1,4.934,3.087,19.03,19.03,0,0,1,3.27,3.58l.818,1.452V45.579l9.064,3.524.909,25.472A9.986,9.986,0,0,0,158.23,79.7a7.986,7.986,0,0,0,3.721,3.313q6.576,2.58,6.075-11.34a49.034,49.034,0,0,0-8.754-25.606,42.93,42.93,0,0,0-20.087-17.127,16.915,16.915,0,0,0-18.853,2.4,25.606,25.606,0,0,0-7.3,20.94,54.017,54.017,0,0,0,9.071,27.2A41.8,41.8,0,0,0,141.455,97.6a22.884,22.884,0,0,0,9.071,1.762,12.031,12.031,0,0,0,5.892-1.085l1.811-.994,5.49,10.2-.909.634a21.644,21.644,0,0,1-2.678,1.269,17.142,17.142,0,0,1-4.532,1.269,22.672,22.672,0,0,1-6.026,0,30.377,30.377,0,0,1-7.661-1.952,49.872,49.872,0,0,1-18.135-13.321A79,79,0,0,1,109.725,73.44,67.161,67.161,0,0,1,103.918,49.1a39.06,39.06,0,0,1,4.172-20.439,23.026,23.026,0,0,1,12.877-11.333,24.809,24.809,0,0,1,17.86.9A57.618,57.618,0,0,1,165.4,40.991Zm-20,32.231a9.085,9.085,0,0,0,1.861-6.71,17.31,17.31,0,0,0-2.4-8.387,11.516,11.516,0,0,0-5.491-4.983,4.934,4.934,0,0,0-5.568.7,8.3,8.3,0,0,0-2,6.576,16.966,16.966,0,0,0,2.587,8.458,12.179,12.179,0,0,0,5.758,5.166,4.532,4.532,0,0,0,5.258-.818M700.7,531.8a66.165,66.165,0,0,1,11.784,34.444,22.658,22.658,0,0,1-3.848,16.091,9.339,9.339,0,0,1-11.277,1.952,17.859,17.859,0,0,1-6.075-4.088,21.93,21.93,0,0,1-3.9-4.934l-1.085-2.114a8.777,8.777,0,0,1-1.092,1.536,7.655,7.655,0,0,1-3.714,1.586,10.9,10.9,0,0,1-6.667-.768,25.161,25.161,0,0,1-11.876-10.7,34.078,34.078,0,0,1-5.307-17.218,16.662,16.662,0,0,1,4.229-13.6,9.656,9.656,0,0,1,10.967-1.72,16.131,16.131,0,0,1,4.934,3.08,19.728,19.728,0,0,1,3.27,3.63l.86,1.445v-4.081l9.064,3.524.909,25.472a10.254,10.254,0,0,0,1.628,5.124,7.909,7.909,0,0,0,3.722,3.313c4.532,1.72,6.392-2.044,6.117-11.333a49.267,49.267,0,0,0-8.747-25.655,42.993,42.993,0,0,0-20.038-17.085,16.957,16.957,0,0,0-18.86,2.354,25.605,25.605,0,0,0-7.119,21.073,53.839,53.839,0,0,0,9.064,27.2,41.978,41.978,0,0,0,19.593,17.543,23.507,23.507,0,0,0,9.064,1.811,12.47,12.47,0,0,0,5.892-1.092l1.811-.994,5.491,10.2-.916.634a22.506,22.506,0,0,1-7.2,2.537,23.135,23.135,0,0,1-6.075,0,30.31,30.31,0,0,1-7.612-1.995,49.873,49.873,0,0,1-18.135-13.279,79.179,79.179,0,0,1-14.1-21.99,67.022,67.022,0,0,1-5.8-24.33,38.834,38.834,0,0,1,4.173-20.4,23.209,23.209,0,0,1,12.877-11.383,25.119,25.119,0,0,1,17.9.916A57.709,57.709,0,0,1,700.639,531.8Zm-20,32.224a9.092,9.092,0,0,0,1.9-6.71,17.177,17.177,0,0,0-2.446-8.387,11.332,11.332,0,0,0-5.441-4.983,4.933,4.933,0,0,0-5.575.7,8.2,8.2,0,0,0-2.044,6.569,16.866,16.866,0,0,0,2.587,8.387,12.313,12.313,0,0,0,5.758,5.216,4.532,4.532,0,0,0,5.258-.775" transform="translate(627.437 94.403)" fill="#f47b56"/>
          <path id="Trazado_82" data-name="Trazado 82" d="M323.668,191.587,170.2,104.29,16.782,191.756s85.373,53.3,161.759,98.08c48.512-34.268,91.624-73.469,145.126-98.264Z" transform="translate(100.999 627.868)" opacity="0.25" fill="url(#linear-gradient-5)"/>
        </g>
      </g>
    </g>
  </g>
</svg>
